HIERARCHY
ROOT Hips
{
	OFFSET 0.000000 87.230942 0.000000
	CHANNELS 6 Xposition Yposition Zposition Xrotation Yrotation Zrotation
	JOINT Pelvis
	{
		OFFSET 0.000000 0.000000 0.000000
		CHANNELS 3 Xrotation Yrotation Zrotation
		JOINT LeftUpLeg
		{
			OFFSET 12.017000 -9.376404 -2.439400
			CHANNELS 3 Xrotation Yrotation Zrotation
			JOINT LeftLeg
			{
				OFFSET -0.007312 -32.846973 2.110600
				CHANNELS 3 Xrotation Yrotation Zrotation
				JOINT LeftFoot
				{
					OFFSET 0.007312 -32.065170 -0.570400
					CHANNELS 3 Xrotation Yrotation Zrotation
					JOINT LeftToeBase
					{
						OFFSET 0.728300 -11.045900 13.180700
						CHANNELS 3 Xrotation Yrotation Zrotation
						End Site
						{
							OFFSET 0.000000 17.212589 0.000000
						}
					}
				}
				JOINT LeftPantLeg
				{
					OFFSET 0.002788 -16.709013 -3.143600
					CHANNELS 3 Xrotation Yrotation Zrotation
					End Site
					{
						OFFSET -0.605125 24.528742 0.000000
					}
				}
			}
			JOINT Left_Butt
			{
				OFFSET -6.630234 1.326584 -3.183700
				CHANNELS 3 Xrotation Yrotation Zrotation
				End Site
				{
					OFFSET -0.498041 20.188049 0.000000
				}
			}
		}
		JOINT RightUpLeg
		{
			OFFSET -11.717000 -9.376404 -2.439400
			CHANNELS 3 Xrotation Yrotation Zrotation
			JOINT RightLeg
			{
				OFFSET -0.003241 -32.846912 2.110600
				CHANNELS 3 Xrotation Yrotation Zrotation
				JOINT RightFoot
				{
					OFFSET 0.003241 -32.065136 -0.570500
					CHANNELS 3 Xrotation Yrotation Zrotation
					JOINT RightToeBase
					{
						OFFSET -0.728300 -11.045901 13.180700
						CHANNELS 3 Xrotation Yrotation Zrotation
						End Site
						{
							OFFSET 0.000000 17.212593 0.000000
						}
					}
				}
				JOINT RightPantLeg
				{
					OFFSET 0.008142 -16.708982 -3.143700
					CHANNELS 3 Xrotation Yrotation Zrotation
					End Site
					{
						OFFSET 0.605088 24.528715 0.000000
					}
				}
			}
			JOINT Right_Butt
			{
				OFFSET 6.630732 1.326584 -3.183700
				CHANNELS 3 Xrotation Yrotation Zrotation
				End Site
				{
					OFFSET 0.498015 20.188240 0.000000
				}
			}
		}
	}
	JOINT Spine
	{
		OFFSET -0.062400 7.848404 3.918300
		CHANNELS 3 Xrotation Yrotation Zrotation
		JOINT Spine1
		{
			OFFSET -0.072800 11.422302 0.713400
			CHANNELS 3 Xrotation Yrotation Zrotation
			JOINT Spine2
			{
				OFFSET -0.083200 13.054001 -1.931600
				CHANNELS 3 Xrotation Yrotation Zrotation
				JOINT Neck
				{
					OFFSET -0.092200 14.121796 -5.138800
					CHANNELS 3 Xrotation Yrotation Zrotation
					JOINT Head
					{
						OFFSET 0.000200 10.447403 -0.842000
						CHANNELS 3 Xrotation Yrotation Zrotation
						JOINT Visor
						{
							OFFSET 0.457100 25.671204 16.550400
							CHANNELS 3 Xrotation Yrotation Zrotation
							End Site
							{
								OFFSET 0.000000 26.061493 0.000000
							}
						}
						JOINT HairMidA
						{
							OFFSET 0.459400 31.585403 8.437400
							CHANNELS 3 Xrotation Yrotation Zrotation
							End Site
							{
								OFFSET 0.000000 26.061493 0.000000
							}
						}
						JOINT HairMidB
						{
							OFFSET 0.464000 33.309204 -8.389700
							CHANNELS 3 Xrotation Yrotation Zrotation
							End Site
							{
								OFFSET 0.000000 26.061493 0.000000
							}
						}
						JOINT HairMidC
						{
							OFFSET 0.466600 27.991196 -17.375099
							CHANNELS 3 Xrotation Yrotation Zrotation
							End Site
							{
								OFFSET 0.000000 26.061493 0.000000
							}
						}
						JOINT HairMidD
						{
							OFFSET 0.467700 17.888092 -21.169500
							CHANNELS 3 Xrotation Yrotation Zrotation
							End Site
							{
								OFFSET 0.000000 26.061493 0.000000
							}
						}
						JOINT HairMidE
						{
							OFFSET 5.325700 3.514603 -14.369699
							CHANNELS 3 Xrotation Yrotation Zrotation
							End Site
							{
								OFFSET 0.000000 26.061493 0.000000
							}
						}
						JOINT HairMidF
						{
							OFFSET -4.394100 3.514603 -14.372400
							CHANNELS 3 Xrotation Yrotation Zrotation
							End Site
							{
								OFFSET 0.000000 26.061493 0.000000
							}
						}
						JOINT HairLeftA
						{
							OFFSET 15.319900 25.746506 2.623300
							CHANNELS 3 Xrotation Yrotation Zrotation
							End Site
							{
								OFFSET 0.000000 26.061493 0.000000
							}
						}
						JOINT HairLeftB
						{
							OFFSET 12.619500 29.289398 -8.731499
							CHANNELS 3 Xrotation Yrotation Zrotation
							End Site
							{
								OFFSET 0.000000 26.061493 0.000000
							}
						}
						JOINT HairLeftC
						{
							OFFSET 15.714800 15.959900 2.909800
							CHANNELS 3 Xrotation Yrotation Zrotation
							End Site
							{
								OFFSET 0.000000 26.061493 0.000000
							}
						}
						JOINT HairLeftD
						{
							OFFSET 16.101700 18.437408 -7.553200
							CHANNELS 3 Xrotation Yrotation Zrotation
							End Site
							{
								OFFSET 0.000000 26.061493 0.000000
							}
						}
						JOINT HairLeftE
						{
							OFFSET 9.731900 17.915009 -18.316799
							CHANNELS 3 Xrotation Yrotation Zrotation
							End Site
							{
								OFFSET 0.000000 26.061493 0.000000
							}
						}
						JOINT HairLeftF
						{
							OFFSET 11.204300 4.953598 -9.668100
							CHANNELS 3 Xrotation Yrotation Zrotation
							End Site
							{
								OFFSET 0.000000 26.061493 0.000000
							}
						}
						JOINT HairRightA
						{
							OFFSET -14.397900 25.746307 2.615100
							CHANNELS 3 Xrotation Yrotation Zrotation
							End Site
							{
								OFFSET 0.000000 26.061493 0.000000
							}
						}
						JOINT HairRightB
						{
							OFFSET -11.691200 29.289200 -8.738199
							CHANNELS 3 Xrotation Yrotation Zrotation
							End Site
							{
								OFFSET 0.000000 26.061493 0.000000
							}
						}
						JOINT HairRightC
						{
							OFFSET -14.792900 15.959702 2.901400
							CHANNELS 3 Xrotation Yrotation Zrotation
							End Site
							{
								OFFSET 0.000000 26.061493 0.000000
							}
						}
						JOINT HairRightD
						{
							OFFSET -15.174000 18.437195 -7.561900
							CHANNELS 3 Xrotation Yrotation Zrotation
							End Site
							{
								OFFSET 0.000000 26.061493 0.000000
							}
						}
						JOINT HairRightE
						{
							OFFSET -8.798200 17.914902 -18.322001
							CHANNELS 3 Xrotation Yrotation Zrotation
							End Site
							{
								OFFSET 0.000000 26.061493 0.000000
							}
						}
						JOINT HairRightF
						{
							OFFSET -10.275200 4.953506 -9.674099
							CHANNELS 3 Xrotation Yrotation Zrotation
							End Site
							{
								OFFSET 0.000000 26.061493 0.000000
							}
						}
					}
				}
				JOINT LeftShoulder
				{
					OFFSET 5.133500 7.341202 -1.867600
					CHANNELS 3 Xrotation Yrotation Zrotation
					JOINT LeftArm
					{
						OFFSET 8.072663 0.936867 -2.176600
						CHANNELS 3 Xrotation Yrotation Zrotation
						JOINT LeftForeArm
						{
							OFFSET 31.271999 0.000000 0.000000
							CHANNELS 3 Xrotation Yrotation Zrotation
							JOINT LeftHand
							{
								OFFSET 31.771030 0.000000 0.000000
								CHANNELS 3 Xrotation Yrotation Zrotation
								JOINT LeftHandThumb1
								{
									OFFSET 2.886520 -2.557846 4.416640
									CHANNELS 3 Xrotation Yrotation Zrotation
									JOINT LeftHandThumb2
									{
										OFFSET 2.371025 -1.368912 1.368911
										CHANNELS 3 Xrotation Yrotation Zrotation
										JOINT LeftHandThumb3
										{
											OFFSET 2.243378 -1.295212 1.295213
											CHANNELS 3 Xrotation Yrotation Zrotation
											End Site
											{
												OFFSET -0.332611 2.876945 0.020015
											}
										}
									}
								}
								JOINT LeftHandIndex1
								{
									OFFSET 8.568985 -0.641945 3.119977
									CHANNELS 3 Xrotation Yrotation Zrotation
									JOINT LeftHandIndex2
									{
										OFFSET 3.348503 0.000000 0.000000
										CHANNELS 3 Xrotation Yrotation Zrotation
										JOINT LeftHandIndex3
										{
											OFFSET 3.314552 0.000000 0.000000
											CHANNELS 3 Xrotation Yrotation Zrotation
											End Site
											{
												OFFSET -1.032898 3.075485 0.678796
											}
										}
									}
								}
								JOINT LeftHandMiddle1
								{
									OFFSET 8.124603 0.000000 0.000000
									CHANNELS 3 Xrotation Yrotation Zrotation
									JOINT LeftHandMiddle2
									{
										OFFSET 4.166275 0.000000 0.000000
										CHANNELS 3 Xrotation Yrotation Zrotation
										JOINT LeftHandMiddle3
										{
											OFFSET 3.018135 0.000000 0.000000
											CHANNELS 3 Xrotation Yrotation Zrotation
											End Site
											{
												OFFSET -1.032700 2.767982 0.617226
											}
										}
									}
								}
								JOINT LeftHandRing1
								{
									OFFSET 8.571686 -0.031357 -2.884048
									CHANNELS 3 Xrotation Yrotation Zrotation
									JOINT LeftHandRing2
									{
										OFFSET 3.671181 0.000000 0.000000
										CHANNELS 3 Xrotation Yrotation Zrotation
										JOINT LeftHandRing3
										{
											OFFSET 2.728851 0.000000 0.000000
											CHANNELS 3 Xrotation Yrotation Zrotation
											End Site
											{
												OFFSET -0.815796 2.539223 0.577389
											}
										}
									}
								}
								JOINT LeftHandPinky1
								{
									OFFSET 7.854515 -0.675232 -5.213020
									CHANNELS 3 Xrotation Yrotation Zrotation
									JOINT LeftHandPinky2
									{
										OFFSET 3.068596 0.000000 0.000000
										CHANNELS 3 Xrotation Yrotation Zrotation
										JOINT LeftHandPinky3
										{
											OFFSET 2.396042 0.000000 0.000000
											CHANNELS 3 Xrotation Yrotation Zrotation
											End Site
											{
												OFFSET -0.524597 2.267998 0.567429
											}
										}
									}
								}
							}
							JOINT LeftSleeve
							{
								OFFSET 19.684509 -0.200119 0.476146
								CHANNELS 3 Xrotation Yrotation Zrotation
								End Site
								{
									OFFSET -0.031017 25.731133 -0.002868
								}
							}
						}
					}
				}
				JOINT RightShoulder
				{
					OFFSET -4.395900 7.341202 -1.870200
					CHANNELS 3 Xrotation Yrotation Zrotation
					JOINT RightArm
					{
						OFFSET -8.071453 0.936867 -2.181100
						CHANNELS 3 Xrotation Yrotation Zrotation
						JOINT RightForeArm
						{
							OFFSET -31.272011 0.000000 0.000000
							CHANNELS 3 Xrotation Yrotation Zrotation
							JOINT RightHand
							{
								OFFSET -31.771019 0.000000 0.000000
								CHANNELS 3 Xrotation Yrotation Zrotation
								JOINT RightHandThumb1
								{
									OFFSET -2.886520 -2.557808 4.416626
									CHANNELS 3 Xrotation Yrotation Zrotation
									JOINT RightHandThumb2
									{
										OFFSET -2.371056 -1.368927 1.368928
										CHANNELS 3 Xrotation Yrotation Zrotation
										JOINT RightHandThumb3
										{
											OFFSET -2.243362 -1.295204 1.295206
											CHANNELS 3 Xrotation Yrotation Zrotation
											End Site
											{
												OFFSET 0.332642 2.876938 0.020047
											}
										}
									}
								}
								JOINT RightHandIndex1
								{
									OFFSET -8.568993 -0.641953 3.120017
									CHANNELS 3 Xrotation Yrotation Zrotation
									JOINT RightHandIndex2
									{
										OFFSET -3.348518 0.000000 0.000000
										CHANNELS 3 Xrotation Yrotation Zrotation
										JOINT RightHandIndex3
										{
											OFFSET -3.314552 0.000000 0.000000
											CHANNELS 3 Xrotation Yrotation Zrotation
											End Site
											{
												OFFSET 1.032898 3.075478 0.678804
											}
										}
									}
								}
								JOINT RightHandMiddle1
								{
									OFFSET -8.124588 0.000000 0.000000
									CHANNELS 3 Xrotation Yrotation Zrotation
									JOINT RightHandMiddle2
									{
										OFFSET -4.166275 0.000000 0.000000
										CHANNELS 3 Xrotation Yrotation Zrotation
										JOINT RightHandMiddle3
										{
											OFFSET -3.018097 0.000000 0.000000
											CHANNELS 3 Xrotation Yrotation Zrotation
											End Site
											{
												OFFSET 1.032700 2.767937 0.617197
											}
										}
									}
								}
								JOINT RightHandRing1
								{
									OFFSET -8.571747 -0.031349 -2.884061
									CHANNELS 3 Xrotation Yrotation Zrotation
									JOINT RightHandRing2
									{
										OFFSET -3.671204 0.000000 0.000000
										CHANNELS 3 Xrotation Yrotation Zrotation
										JOINT RightHandRing3
										{
											OFFSET -2.728874 0.000000 0.000000
											CHANNELS 3 Xrotation Yrotation Zrotation
											End Site
											{
												OFFSET 0.815804 2.539261 0.577413
											}
										}
									}
								}
								JOINT RightHandPinky1
								{
									OFFSET -7.854561 -0.675247 -5.212970
									CHANNELS 3 Xrotation Yrotation Zrotation
									JOINT RightHandPinky2
									{
										OFFSET -3.068550 0.000000 0.000000
										CHANNELS 3 Xrotation Yrotation Zrotation
										JOINT RightHandPinky3
										{
											OFFSET -2.395981 0.000000 0.000000
											CHANNELS 3 Xrotation Yrotation Zrotation
											End Site
											{
												OFFSET 0.524605 2.267952 0.567413
											}
										}
									}
								}
							}
							JOINT RightSleeve
							{
								OFFSET -19.684753 -0.200165 0.476065
								CHANNELS 3 Xrotation Yrotation Zrotation
								End Site
								{
									OFFSET 0.031342 25.731255 -0.002917
								}
							}
						}
					}
				}
				JOINT Hood
				{
					OFFSET 0.369700 14.447800 -5.317800
					CHANNELS 3 Xrotation Yrotation Zrotation
					JOINT Hood1
					{
						OFFSET 0.001700 -5.553802 -5.895100
						CHANNELS 3 Xrotation Yrotation Zrotation
						JOINT Hood2
						{
							OFFSET -0.000200 -8.380501 0.763600
							CHANNELS 3 Xrotation Yrotation Zrotation
							End Site
							{
								OFFSET 0.000000 8.415215 0.000000
							}
						}
					}
				}
				JOINT Left_Breast
				{
					OFFSET 5.682500 3.120102 3.188800
					CHANNELS 3 Xrotation Yrotation Zrotation
					End Site
					{
						OFFSET 0.000000 10.528564 0.000000
					}
				}
				JOINT Right_Breast
				{
					OFFSET -4.947600 3.120102 3.185900
					CHANNELS 3 Xrotation Yrotation Zrotation
					End Site
					{
						OFFSET 0.000000 10.528564 0.000000
					}
				}
				JOINT Whistle
				{
					OFFSET 0.368200 11.471298 0.095400
					CHANNELS 3 Xrotation Yrotation Zrotation
					JOINT Whistle1
					{
						OFFSET -0.002000 -6.349899 7.479800
						CHANNELS 3 Xrotation Yrotation Zrotation
						JOINT Whistle2
						{
							OFFSET -0.001300 -8.217598 4.717600
							CHANNELS 3 Xrotation Yrotation Zrotation
							End Site
							{
								OFFSET 0.000000 9.475479 0.000000
							}
						}
					}
				}
			}
		}
		JOINT Belly
		{
			OFFSET 0.212400 1.593002 3.163700
			CHANNELS 3 Xrotation Yrotation Zrotation
			End Site
			{
				OFFSET 0.000000 7.496635 0.000000
			}
		}
	}
	JOINT FitGrandmaFacialAnim_Joint
	{
		OFFSET 1.150000 -86.211197 -1.220100
		CHANNELS 3 Xrotation Yrotation Zrotation
		End Site
		{
			OFFSET 0.000000 31.666618 0.000000
		}
	}
}
MOTION
Frames: 4
Frame Time: 0.016667
5.142632 84.683090 80.458725 -171.516036 67.222059 178.320680 0.000000 0.000000 0.000000 -22.172032 10.175901 5.363695 33.359819 3.801060 2.810970 -6.570732 1.908964 -14.302063 0.000000 0.000002 -0.000000 0.000000 0.000002 -0.000001 0.000000 0.000001 0.000000 -1.476255 -11.284734 -12.224277 28.957612 -9.226835 -3.056419 -23.423794 -5.806810 11.292973 -0.000000 -0.000000 0.000000 -0.000003 -0.000000 0.000001 -0.000000 -0.000001 -0.000000 10.478247 -3.466785 -6.308846 5.905957 -0.746140 -0.137395 5.913737 -0.679953 -0.131282 -10.724001 -0.020887 2.039221 -4.215062 13.545541 -3.367737 0.000000 0.000001 -0.000000 0.000000 0.000001 -0.000000 0.000000 0.000001 -0.000000 0.000000 0.000001 -0.000000 0.000000 0.000001 -0.000000 0.000000 0.000001 -0.000000 0.000000 0.000001 -0.000000 0.000000 0.000001 -0.000000 0.000000 0.000001 -0.000000 0.000000 0.000001 -0.000000 0.000000 0.000001 -0.000000 0.000000 0.000001 -0.000000 0.000000 0.000001 -0.000000 0.000000 0.000001 -0.000000 0.000000 0.000001 -0.000000 0.000000 0.000001 -0.000000 0.000000 0.000001 -0.000000 0.000000 0.000001 -0.000000 0.000000 0.000001 -0.000000 4.565335 8.264142 -9.764209 -7.251018 -13.343447 -59.256495 -0.000007 -11.301086 -0.000012 9.160482 -15.323031 -1.192315 -3.469766 3.607319 7.883208 9.703636 22.223516 2.891165 0.000000 -0.000001 0.000001 0.162350 3.429607 -10.498174 0.209652 1.554728 -15.358582 0.000000 -0.000001 0.000002 0.362539 4.206372 -18.344220 0.474609 2.311783 -23.200215 -0.000001 -0.000000 -0.000003 0.689022 4.991716 -26.673243 0.865739 3.066799 -31.521449 0.000000 -0.000000 0.000002 0.902495 5.377897 -30.995344 1.110590 3.433616 -35.838180 -0.000000 -0.000001 -0.000000 0.000001 0.000001 -0.000000 1.424812 6.319856 17.460009 -2.214352 -4.391939 64.929875 0.000014 27.167076 0.000007 -23.146953 -17.077653 -15.152671 -1.986177 -5.435657 -3.761593 8.766458 -20.697693 -3.062095 -0.000000 0.000002 0.000001 2.057116 -6.108245 55.293564 5.419373 -4.594543 99.429407 0.000002 -0.000001 0.000003 2.592845 -6.426540 62.973429 4.946622 -4.648180 93.567322 0.000000 0.000000 0.000002 2.854999 -6.549368 66.538590 4.919150 -4.649818 93.228209 -0.000000 0.000001 -0.000002 1.542116 -5.696849 47.168207 2.898954 -4.313187 67.797339 -0.000001 0.000001 -0.000000 0.000003 0.000001 -0.000000 -0.000001 0.000001 -0.000000 -0.000001 0.000001 -0.000000 -0.000001 0.000001 -0.000000 -0.000001 0.000001 -0.000000 -0.000001 0.000001 -0.000000 -0.000002 0.000001 0.000000 -0.000002 0.000001 0.000000 -0.000002 0.000001 0.000000 -0.000000 -0.000001 -0.000000 0.000000 0.000000 0.000000 
5.257790 84.577789 79.993454 -172.161666 65.318595 178.959603 -0.000000 -0.000000 0.000000 -21.821891 9.999786 5.456394 32.084943 4.792142 3.086195 -6.811807 2.248091 -13.782400 0.000000 0.000001 -0.000000 -0.000000 0.000000 0.000001 0.000004 -0.000001 -0.000001 -0.671702 -11.837318 -12.184410 28.662981 -9.194589 -3.013697 -23.574671 -7.358083 11.504387 0.000000 -0.000000 0.000000 -0.000002 -0.000000 0.000001 0.000001 -0.000001 -0.000001 10.520581 -3.443091 -6.493384 5.937754 -0.731595 -0.053678 5.944719 -0.659889 -0.046719 -10.723266 -0.058136 2.025079 -4.160082 14.345673 -3.272149 0.000000 0.000001 0.000000 0.000000 0.000001 0.000000 0.000000 0.000001 0.000000 0.000000 0.000001 0.000000 0.000000 0.000001 0.000000 0.000000 0.000001 0.000000 0.000000 0.000001 0.000000 0.000000 0.000001 0.000000 0.000000 0.000001 0.000000 0.000000 0.000001 0.000000 0.000000 0.000001 0.000000 0.000000 0.000001 0.000000 0.000000 0.000001 0.000000 0.000000 0.000001 0.000000 0.000000 0.000001 0.000000 0.000000 0.000001 0.000000 0.000000 0.000001 0.000000 0.000000 0.000001 0.000000 0.000000 0.000001 0.000000 4.439879 8.094341 -9.464045 -6.237159 -11.834761 -59.241673 -0.000006 -11.844610 0.000003 9.598138 -13.812561 -2.183863 -3.469766 3.607320 7.883205 9.703636 22.223518 2.891166 -0.000000 0.000001 0.000001 0.162353 3.429606 -10.498173 0.209651 1.554730 -15.358579 0.000001 -0.000000 -0.000001 0.362539 4.206370 -18.344220 0.474610 2.311782 -23.200216 -0.000001 0.000000 -0.000003 0.689027 4.991714 -26.673246 0.865736 3.066802 -31.521456 -0.000000 0.000002 -0.000005 0.902495 5.377896 -30.995347 1.110590 3.433615 -35.838184 0.000001 -0.000001 -0.000000 0.000000 0.000001 -0.000001 1.440129 6.247009 17.504248 -2.407544 -5.275757 64.582505 0.000017 26.607753 -0.000005 -21.465302 -16.875383 -14.388031 -1.986177 -5.435656 -3.761593 8.766456 -20.697696 -3.062092 0.000001 0.000004 0.000002 2.057116 -6.108245 55.293564 5.419373 -4.594543 99.429413 -0.000001 -0.000000 0.000003 2.592844 -6.426537 62.973429 4.946624 -4.648181 93.567322 0.000000 0.000001 -0.000005 2.855001 -6.549367 66.538590 4.919154 -4.649819 93.228203 -0.000000 0.000000 -0.000004 1.542112 -5.696850 47.168214 2.898957 -4.313185 67.797346 -0.000001 0.000000 -0.000001 -0.000001 -0.000000 -0.000000 0.000001 -0.000002 0.000000 0.000001 -0.000002 0.000000 0.000001 -0.000002 0.000000 0.000001 -0.000002 0.000000 0.000001 -0.000002 0.000000 0.000001 -0.000002 0.000001 -0.000002 0.000001 -0.000000 -0.000002 0.000001 -0.000000 0.000001 -0.000001 0.000000 -0.000000 -0.000000 0.000000 
5.372530 84.466858 79.475204 -172.649137 63.418272 179.437197 0.000000 0.000000 -0.000000 -21.343434 9.751332 5.508905 30.696434 5.556669 3.318312 -6.897457 2.705408 -13.312011 -0.000000 -0.000001 -0.000000 -0.000000 -0.000002 0.000000 -0.000003 0.000004 0.000003 0.237531 -12.410281 -12.138542 28.275153 -9.171485 -2.964168 -23.686953 -8.888602 11.762107 -0.000000 -0.000000 0.000000 0.000001 -0.000001 0.000000 0.000000 0.000001 -0.000000 10.591813 -3.401386 -6.695401 5.956441 -0.710470 0.027103 5.962349 -0.633114 0.034886 -10.724165 -0.096659 2.008865 -4.103969 15.186876 -3.159081 -0.000000 -0.000002 0.000000 -0.000000 -0.000002 0.000000 -0.000000 -0.000002 0.000000 -0.000000 -0.000002 0.000000 -0.000000 -0.000002 0.000000 -0.000000 -0.000002 0.000000 -0.000000 -0.000002 0.000000 -0.000000 -0.000002 0.000000 -0.000000 -0.000002 0.000000 -0.000000 -0.000002 0.000000 -0.000000 -0.000002 0.000000 -0.000000 -0.000002 0.000000 -0.000000 -0.000002 0.000000 -0.000000 -0.000002 0.000000 -0.000000 -0.000002 0.000000 -0.000000 -0.000002 0.000000 -0.000000 -0.000002 0.000000 -0.000000 -0.000002 0.000000 -0.000000 -0.000002 0.000000 4.315408 7.926124 -9.159260 -5.366273 -10.439498 -59.331149 -0.000006 -12.405912 0.000004 10.104733 -12.230433 -3.230670 -3.469764 3.607319 7.883210 9.703635 22.223521 2.891173 -0.000000 -0.000001 0.000003 0.162352 3.429607 -10.498174 0.209649 1.554729 -15.358580 0.000000 0.000000 -0.000001 0.362539 4.206372 -18.344220 0.474610 2.311783 -23.200215 0.000000 0.000000 -0.000001 0.689026 4.991717 -26.673248 0.865738 3.066801 -31.521456 0.000001 0.000000 -0.000007 0.902497 5.377895 -30.995347 1.110589 3.433617 -35.838184 -0.000001 0.000000 -0.000008 -0.000000 -0.000001 0.000002 1.452239 6.186891 17.530466 -2.514466 -6.093121 64.276165 -0.000009 26.010580 0.000018 -19.830657 -16.637567 -13.686404 -1.986180 -5.435658 -3.761595 8.766457 -20.697693 -3.062092 0.000001 -0.000000 0.000001 2.057112 -6.108247 55.293564 5.419376 -4.594538 99.429407 -0.000001 0.000000 0.000003 2.592842 -6.426541 62.973429 4.946627 -4.648181 93.567322 -0.000001 0.000002 -0.000001 2.854997 -6.549370 66.538590 4.919153 -4.649818 93.228209 0.000000 -0.000001 0.000003 1.542114 -5.696851 47.168211 2.898957 -4.313183 67.797346 -0.000001 0.000000 0.000001 0.000002 -0.000001 0.000001 -0.000000 -0.000001 -0.000000 -0.000000 -0.000001 -0.000000 -0.000000 -0.000001 -0.000000 -0.000000 -0.000001 -0.000000 -0.000000 -0.000001 -0.000000 -0.000001 -0.000001 -0.000000 -0.000001 -0.000001 -0.000001 -0.000001 -0.000001 -0.000001 0.000000 -0.000000 0.000000 0.000000 0.000000 -0.000000 
5.485594 84.346756 78.903008 -173.030494 61.531057 179.802066 -0.000000 -0.000000 0.000000 -20.782191 9.460737 5.523303 29.272459 6.134975 3.515861 -6.811623 3.277796 -12.990672 0.000000 0.000001 -0.000000 0.000001 -0.000002 0.000002 -0.000002 0.000004 0.000003 1.250852 -13.000812 -12.079027 27.781774 -9.152515 -2.908630 -23.769350 -10.411511 12.070534 -0.000000 0.000000 0.000000 -0.000003 0.000000 0.000001 -0.000000 0.000001 -0.000001 10.676524 -3.343569 -6.905148 5.960718 -0.683479 0.100004 5.965378 -0.600646 0.108446 -10.728265 -0.136324 1.990620 -4.053719 16.057577 -3.028832 -0.000000 0.000001 -0.000000 -0.000000 0.000001 -0.000000 -0.000000 0.000001 -0.000000 -0.000000 0.000001 -0.000000 -0.000000 0.000001 -0.000000 -0.000000 0.000001 -0.000000 -0.000000 0.000001 -0.000000 -0.000000 0.000001 -0.000000 -0.000000 0.000001 -0.000000 -0.000000 0.000001 -0.000000 -0.000000 0.000001 -0.000000 -0.000000 0.000001 -0.000000 -0.000000 0.000001 -0.000000 -0.000000 0.000001 -0.000000 -0.000000 0.000001 -0.000000 -0.000000 0.000001 -0.000000 -0.000000 0.000001 -0.000000 -0.000000 0.000001 -0.000000 -0.000000 0.000001 -0.000000 4.191116 7.756937 -8.850423 -4.627763 -9.151180 -59.511732 -0.000007 -12.942806 0.000013 10.682197 -10.597885 -4.326578 -3.469766 3.607319 7.883208 9.703636 22.223513 2.891174 0.000001 0.000002 -0.000001 0.162353 3.429606 -10.498171 0.209650 1.554729 -15.358582 0.000001 -0.000000 0.000001 0.362538 4.206370 -18.344220 0.474608 2.311784 -23.200221 -0.000002 0.000000 -0.000001 0.689025 4.991715 -26.673243 0.865738 3.066801 -31.521449 0.000001 0.000000 0.000000 0.902496 5.377894 -30.995347 1.110589 3.433618 -35.838187 -0.000002 -0.000001 0.000002 -0.000000 -0.000000 0.000003 1.460384 6.141545 17.531882 -2.497073 -6.813974 64.020340 -0.000012 25.388740 0.000005 -18.293275 -16.391190 -13.073729 -1.986177 -5.435656 -3.761593 8.766456 -20.697693 -3.062088 0.000001 -0.000000 -0.000002 2.057115 -6.108243 55.293564 5.419375 -4.594538 99.429400 -0.000001 -0.000000 0.000001 2.592844 -6.426538 62.973436 4.946625 -4.648181 93.567322 -0.000000 -0.000001 0.000002 2.854998 -6.549366 66.538596 4.919152 -4.649818 93.228203 -0.000001 -0.000001 -0.000003 1.542112 -5.696849 47.168214 2.898957 -4.313184 67.797346 -0.000002 -0.000001 0.000000 0.000001 0.000000 0.000000 -0.000000 -0.000001 0.000000 -0.000000 -0.000001 0.000000 -0.000000 -0.000001 0.000000 -0.000000 -0.000001 0.000000 -0.000000 -0.000001 0.000000 -0.000001 -0.000001 0.000000 -0.000003 0.000001 -0.000001 -0.000003 0.000001 -0.000001 0.000000 0.000000 0.000000 -0.000000 -0.000000 0.000000 
